<?xml version="1.0" encoding="UTF-8"?>
<svg id="Layer_1" xmlns="http://www.w3.org/2000/svg" version="1.1" viewBox="0 0 50 50">
  <!-- Generator: Adobe Illustrator 30.3.0, SVG Export Plug-In . SVG Version: 2.1.3 Build 182)  -->
  <defs>
    <style>
      .st0 {
        fill: #fff;
      }

      .st1 {
        fill: #c84427;
      }

      .st2 {
        fill: none;
        stroke: #fff;
        stroke-miterlimit: 10;
        stroke-width: 4px;
      }

      .st3 {
        fill: #df997a;
      }
    </style>
  </defs>
  <circle class="st3" cx="25" cy="25" r="25"/>
  <path class="st1" d="M49.8,28.3c-1.5,11.3-10.6,20.3-22,21.5l-13-13c-1.7-1.2-2.8-3.2-2.8-5.4v-12.6c0-3.6,2.9-6.6,6.6-6.6h12.6c2.2,0,4.2,1.1,5.4,2.8l13.2,13.3Z"/>
  <path class="st0" d="M36.5,15.1c-1.2-1.7-3.2-2.8-5.4-2.8h-12.6c-3.6,0-6.6,2.9-6.6,6.6v12.6c0,2.2,1.1,4.2,2.8,5.4,1.1.8,2.4,1.2,3.8,1.2h12.6c3.6,0,6.6-2.9,6.6-6.6v-12.7c0-1.4-.4-2.7-1.2-3.7ZM36.5,31.5c0,2.9-2.4,5.3-5.3,5.3h-12.7c-2.9,0-5.3-2.4-5.3-5.3v-12.7c0-2.9,2.4-5.3,5.3-5.3h12.6c2.9,0,5.3,2.4,5.3,5.3v12.7h0Z"/>
  <path class="st1" d="M36.5,18.8v12.6c0,2.9-2.4,5.3-5.3,5.3h-12.7c-2.9,0-5.3-2.4-5.3-5.3v-12.6c0-2.9,2.4-5.3,5.3-5.3h12.6c3,0,5.4,2.4,5.4,5.3Z"/>
  <path class="st2" d="M24.9,30.1h0c-2.7,0-4.9-2.2-4.9-4.9h0c0-2.7,2.2-4.9,4.9-4.9h0c2.7,0,4.9,2.2,4.9,4.9h0c0,2.7-2.2,4.9-4.9,4.9Z"/>
  <path class="st0" d="M32.2,19h0c-.7,0-1.2-.5-1.2-1.2h0c0-.7.5-1.2,1.2-1.2h0c.7,0,1.2.5,1.2,1.2h0c0,.7-.5,1.2-1.2,1.2Z"/>
</svg>